<svg width="600" height="344" xmlns="http://www.w3.org/2000/svg" xmlns:undefined="http://schemas.microsoft.com/visio/2003/SVGExtensions/" class="st22" color-interpolation-filters="sRGB" xml:space="preserve">
 <style type="text/css">
  <![CDATA[
		.st1 {fill:#ffffff;stroke:#000000;stroke-linecap:round;stroke-linejoin:round;stroke-width:0.75}
		.st2 {fill:#000000}
		.st3 {stroke:#000000;stroke-dasharray:5.25,3.75;stroke-linecap:round;stroke-linejoin:round;stroke-width:0.75}
		.st4 {fill:#4d1e1a;font-family:宋体;font-size:0.833336em;font-weight:bold}
		.st5 {fill:none;stroke:none;stroke-linecap:round;stroke-linejoin:round;stroke-width:0.75}
		.st6 {fill:#000000;font-family:宋体;font-size:1.00001em}
		.st7 {stroke:#000000;stroke-dasharray:7,5,0,5;stroke-linecap:round;stroke-linejoin:round;stroke-width:1}
		.st8 {fill:#ab9ac0;stroke:none;stroke-linecap:round;stroke-linejoin:round;stroke-width:0.75}
		.st9 {font-family:Calibri;font-size:1em}
		.st10 {font-family:Microsoft Sans Serif;font-size:1em}
		.st11 {fill:#f59d56;stroke:none;stroke-linecap:round;stroke-linejoin:round;stroke-width:0.75}
		.st12 {fill:#4bacc6;stroke:none;stroke-linecap:round;stroke-linejoin:round;stroke-width:0.75}
		.st13 {fill:#9dbb61;stroke:none;stroke-linecap:round;stroke-linejoin:round;stroke-width:0.75}
		.st14 {fill:#000000;font-family:宋体;font-size:0.666664em}
		.st15 {marker-end:url(#mrkr5-108);stroke:#c05046;stroke-linecap:round;stroke-linejoin:round;stroke-width:0.75}
		.st16 {fill:#c05046;fill-opacity:1;stroke:#c05046;stroke-opacity:1;stroke-width:0.22935779816514}
		.st17 {stroke:#000000;stroke-linecap:round;stroke-linejoin:round;stroke-width:0.75}
		.st18 {marker-end:url(#mrkr5-125);stroke:#4bacc6;stroke-linecap:round;stroke-linejoin:round;stroke-width:0.75}
		.st19 {fill:#4bacc6;fill-opacity:1;stroke:#4bacc6;stroke-opacity:1;stroke-width:0.22935779816514}
		.st20 {marker-start:url(#mrkr5-131);stroke:#fbd7bb;stroke-dasharray:5.25,3.75;stroke-linecap:round;stroke-linejoin:round;stroke-width:0.75}
		.st21 {fill:#fbd7bb;fill-opacity:1;stroke:#fbd7bb;stroke-opacity:1;stroke-width:0.22935779816514}
		.st22 {fill:none;fill-rule:evenodd;font-size:12px;overflow:visible;stroke-linecap:square;stroke-miterlimit:3}
	]]>
 </style>
 <defs id="Markers">
  <g id="lend5">
   <path id="svg_1" style="stroke:none" d="m2,1.99339l-2,-1l1.98117,-0.99339c-0.30944,0.62887 -0.30816,1.36603 0.00348,1.99382"/>
  </g>
 </defs>
 <g   >
  <title>页-1</title>
  <g   id="group1-1">
   <title transform="translate(0,0.9933900237083435) translate(152.8679962158203,-616.5349731445312) ">虚拟 PC</title>
   <desc transform="translate(0,0.9933900237083435) translate(152.8679962158203,-616.5349731445312) ">B</desc>
   <g   id="shape2-2">
    <title transform="translate(0,0.9933900237083435) translate(5.241889953613281,-8.09119987487793) translate(152.8679962158203,-616.5349731445312) ">工作表.2</title>
    <path id="svg_5" class="st1" d="m200.859886,202.757217l0,5.33l3.22,0l3.04,3.81l14.09,0l0,-48.32l-20.35,0l0,6.93l8.73,0l0,32.25l-8.73,0zm8.73,-32.25l-48.33,0l0,32.25l48.33,0l0,-32.25zm2.6,47.75l-8.11,-10.17l-37.86,0l-8.11,10.17l54.08,0zm-22.79,-15.5l-8.5,0l0,5.33l8.5,0l0,-5.33z"/>
   </g>
   <g   id="shape3-4">
    <title transform="translate(0,0.9933900237083435) translate(11.52180004119873,-26.493200302124023) translate(152.8679962158203,-616.5349731445312) ">工作表.3</title>
    <path id="svg_6" class="st1" d="m206.519796,173.705217l-42.13,0l0,26.15l42.13,0l0,-26.15z"/>
   </g>
   <g   id="shape4-6">
    <title transform="translate(0,0.9933900237083435) translate(12.601400375366211,-10.190299987792969) translate(152.8679962158203,-616.5349731445312) ">工作表.4</title>
    <path id="svg_7" class="st2" d="m213.059397,168.988117l4.36,0l0,-1.7l-4.36,0l0,1.7zm0,3.02l4.36,0l0,-1.69l-4.36,0l0,1.69zm-10.66,40.21l-2.4,0l1.34,1.49l2.59,0l-1.53,-1.49zm-2.72,-2.66l-2.07,0l1.45,1.61l2.27,0l-1.65,-1.61zm-0.98,2.66l-2.4,0l1.05,1.49l2.59,0l-1.24,-1.49zm-2.2,-2.66l-2.07,0l1.13,1.61l2.27,0l-1.33,-1.61zm-1.5,2.66l-2.4,0l0.77,1.49l2.59,0l-0.96,-1.49zm-1.68,-2.66l-2.07,0l0.82,1.64l2.28,0l-1.03,-1.64zm-2.01,2.66l-2.41,0l0.48,1.49l2.59,0l-0.66,-1.49zm-1.13,-2.54l-2.09,0l0.49,1.52l2.28,0l-0.68,-1.52zm-2.57,2.54l-2.4,0l0.19,1.49l2.59,0l-0.38,-1.49zm-0.61,-2.42l-2.1,0l0.19,1.5l2.29,0l-0.38,-1.5zm-3.23,0l-2.1,0l-0.1,1.5l2.29,0l-0.09,-1.5zm0.14,2.42l-2.4,0l-0.1,1.49l2.59,0l-0.09,-1.49zm-3.37,-2.42l-2.1,0l-0.39,1.5l2.29,0l0.2,-1.5zm-0.32,2.42l-2.41,0l-0.38,1.49l2.59,0l0.2,-1.49zm13.18,2.45l-16.96,0l-0.44,1.49l18.14,0l-0.74,-1.49zm-16.09,-4.87l-2.1,0l-0.68,1.5l2.29,0l0.49,-1.5zm-0.79,2.42l-2.4,0l-0.68,1.49l2.59,0l0.49,-1.49zm-2.44,-2.42l-2.1,0l-0.97,1.5l2.29,0l0.78,-1.5zm-1.26,2.42l-2.4,0l-0.96,1.49l2.59,0l0.77,-1.49zm-1.97,-2.42l-2.1,0l-1.26,1.5l2.29,0l1.07,-1.5zm-1.72,2.42l-2.41,0l-1.25,1.49l2.59,0l1.07,-1.49z"/>
   </g>
   <g   id="shape5-9">
    <title transform="translate(0,0.9933900237083435) translate(0,-5.567190170288086) translate(152.8679962158203,-616.5349731445312) ">工作表.5</title>
    <path id="svg_8" class="st3" d="m198.327996,167.981227l-39.6,0l0,37.3l6.5,0.01l-12.36,15.49l64.56,0l-5.07,-6.36l11.38,0l0,-53.37l-25.41,0l0,6.93"/>
   </g>
   <g   id="shape1-12">
    <text id="svg_9"  class="st4" y="239.348417" x="185.777996">B</text>
   </g>
  </g>
  <g   id="shape8-14">
   <title transform="translate(0,0.9933900237083435) translate(43.96630096435547,-737.0079956054688) ">工作表.8</title>
   <desc transform="translate(0,0.9933900237083435) translate(43.96630096435547,-737.0079956054688) ">外网</desc>
   <rect id="svg_10" class="st5" height="18.4586" width="140.286" y="87.416394" x="43.966301"/>
   <text id="svg_11"  class="st6" y="100.245394" x="102.106301">外网</text>
  </g>
  <g   id="shape9-17">
   <title transform="translate(0,0.9933900237083435) translate(150.77200317382812,-737.0079956054688) ">工作表.9</title>
   <desc transform="translate(0,0.9933900237083435) translate(150.77200317382812,-737.0079956054688) ">内网</desc>
   <rect id="svg_12" class="st5" height="20" width="152" y="85.875394" x="150.772003"/>
   <text id="svg_13"  class="st6" y="99.475394" x="214.772003">内网</text>
  </g>
  <g    id="shape14-20">
   <title transform="translate(0,0.9933900237083435) translate(158.84100341796875,-751.1810302734375) ">动态连接线</title>
   <path id="svg_14" class="st7" d="m165.831003,91.70236l0.2,198.42"/>
  </g>
  <g   id="group15-23">
   <title transform="translate(0,0.9933900237083435) translate(311.8110046386719,-616.5349731445312) ">PC</title>
   <desc transform="translate(0,0.9933900237083435) translate(311.8110046386719,-616.5349731445312) ">A</desc>
   <g   id="shape16-24">
    <title transform="translate(0,0.9933900237083435) translate(0,-4.726170063018799) translate(311.8110046386719,-616.5349731445312) ">工作表.16</title>
    <path id="svg_15" class="st1" d="m359.821005,204.222247l0,5.98l3.61,0l3.42,4.28l15.83,0l0,-54.27l-22.86,0l0,7.78l9.8,0l0,36.23l-9.8,0zm9.8,-36.23l-54.28,0l0,36.23l54.28,0l0,-36.23zm2.92,53.63l-9.11,-11.42l-42.51,0l-9.11,11.42l60.73,0zm-25.59,-17.4l-9.55,0l0,5.98l9.55,0l0,-5.98z"/>
   </g>
   <g   id="shape17-26">
    <title transform="translate(0,0.9933900237083435) translate(7.052820205688477,-25.39299964904785) translate(311.8110046386719,-616.5349731445312) ">工作表.17</title>
    <path id="svg_16" class="st1" d="m366.183825,171.585417l-47.32,0l0,29.37l47.32,0l0,-29.37z"/>
   </g>
   <g   id="shape18-28">
    <title transform="translate(0,0.9933900237083435) translate(8.265279769897461,-7.083640098571777) translate(311.8110046386719,-616.5349731445312) ">工作表.18</title>
    <path id="svg_17" class="st2" d="m373.526284,166.284777l4.89,0l0,-1.9l-4.89,0l0,1.9zm0,3.4l4.89,0l0,-1.91l-4.89,0l0,1.91zm-11.98,45.15l-2.7,0l1.51,1.68l2.91,0l-1.72,-1.68zm-3.05,-2.98l-2.32,0l1.62,1.81l2.55,0l-1.85,-1.81zm-1.1,2.98l-2.7,0l1.19,1.68l2.91,0l-1.4,-1.68zm-2.48,-2.98l-2.32,0l1.27,1.81l2.56,0l-1.51,-1.81zm-1.67,2.98l-2.7,0l0.86,1.68l2.91,0l-1.07,-1.68zm-1.9,-2.98l-2.32,0l0.93,1.84l2.56,0l-1.17,-1.84zm-2.25,2.98l-2.7,0l0.54,1.68l2.91,0l-0.75,-1.68zm-1.27,-2.85l-2.35,0l0.55,1.71l2.56,0l-0.76,-1.71zm-2.88,2.85l-2.7,0l0.21,1.68l2.91,0l-0.42,-1.68zm-0.69,-2.71l-2.36,0l0.22,1.68l2.57,0l-0.43,-1.68zm-3.63,0l-2.36,0l-0.11,1.68l2.57,0l-0.1,-1.68zm0.16,2.71l-2.7,0l-0.11,1.68l2.91,0l-0.1,-1.68zm-3.78,-2.71l-2.36,0l-0.44,1.68l2.57,0l0.23,-1.68zm-0.37,2.71l-2.7,0l-0.43,1.68l2.91,0l0.22,-1.68zm14.81,2.75l-19.05,0l-0.49,1.68l20.36,0l-0.82,-1.68zm-18.07,-5.46l-2.36,0l-0.76,1.68l2.57,0l0.55,-1.68zm-0.89,2.71l-2.7,0l-0.76,1.68l2.91,0l0.55,-1.68zm-2.74,-2.71l-2.36,0l-1.09,1.68l2.57,0l0.88,-1.68zm-1.41,2.71l-2.7,0l-1.08,1.68l2.91,0l0.87,-1.68zm-2.22,-2.71l-2.36,0l-1.41,1.68l2.57,0l1.2,-1.68zm-1.93,2.71l-2.7,0l-1.41,1.68l2.91,0l1.2,-1.68z"/>
   </g>
   <g   id="shape15-31">
    <text id="svg_18"  class="st4" y="239.348417" x="344.721005">A</text>
   </g>
  </g>
  <g   id="group20-33">
   <title transform="translate(0,0.9933900237083435) translate(7.086609840393066,-616.5349731445312) ">PC.20</title>
   <g   id="shape21-34">
    <title transform="translate(0,0.9933900237083435) translate(0,-4.726170063018799) translate(7.086609840393066,-616.5349731445312) ">工作表.21</title>
    <path id="svg_19" class="st1" d="m55.09661,204.222247l0,5.98l3.61,0l3.42,4.28l15.83,0l0,-54.27l-22.86,0l0,7.78l9.8,0l0,36.23l-9.8,0zm9.8,-36.23l-54.28,0l0,36.23l54.28,0l0,-36.23zm2.92,53.63l-9.11,-11.42l-42.51,0l-9.11,11.42l60.73,0zm-25.59,-17.4l-9.55,0l0,5.98l9.55,0l0,-5.98z"/>
   </g>
   <g   id="shape22-36">
    <title transform="translate(0,0.9933900237083435) translate(7.052820205688477,-25.39299964904785) translate(7.086609840393066,-616.5349731445312) ">工作表.22</title>
    <path id="svg_20" class="st1" d="m61.45943,171.585417l-47.32,0l0,29.37l47.32,0l0,-29.37z"/>
   </g>
   <g   id="shape23-38">
    <title transform="translate(0,0.9933900237083435) translate(8.265279769897461,-7.083640098571777) translate(7.086609840393066,-616.5349731445312) ">工作表.23</title>
    <path id="svg_21" class="st2" d="m68.80189,166.284777l4.89,0l0,-1.9l-4.89,0l0,1.9zm0,3.4l4.89,0l0,-1.91l-4.89,0l0,1.91zm-11.98,45.15l-2.7,0l1.51,1.68l2.91,0l-1.72,-1.68zm-3.05,-2.98l-2.32,0l1.62,1.81l2.55,0l-1.85,-1.81zm-1.1,2.98l-2.7,0l1.19,1.68l2.91,0l-1.4,-1.68zm-2.48,-2.98l-2.32,0l1.27,1.81l2.56,0l-1.51,-1.81zm-1.67,2.98l-2.7,0l0.86,1.68l2.91,0l-1.07,-1.68zm-1.9,-2.98l-2.32,0l0.93,1.84l2.56,0l-1.17,-1.84zm-2.25,2.98l-2.7,0l0.54,1.68l2.91,0l-0.75,-1.68zm-1.27,-2.85l-2.35,0l0.55,1.71l2.56,0l-0.76,-1.71zm-2.88,2.85l-2.7,0l0.21,1.68l2.91,0l-0.42,-1.68zm-0.69,-2.71l-2.36,0l0.22,1.68l2.57,0l-0.43,-1.68zm-3.63,0l-2.36,0l-0.11,1.68l2.57,0l-0.1,-1.68zm0.16,2.71l-2.7,0l-0.11,1.68l2.91,0l-0.1,-1.68zm-3.78,-2.71l-2.36,0l-0.44,1.68l2.57,0l0.23,-1.68zm-0.37,2.71l-2.7,0l-0.43,1.68l2.91,0l0.22,-1.68zm14.81,2.75l-19.05,0l-0.49,1.68l20.36,0l-0.82,-1.68zm-18.07,-5.46l-2.36,0l-0.76,1.68l2.57,0l0.55,-1.68zm-0.89,2.71l-2.7,0l-0.76,1.68l2.91,0l0.55,-1.68zm-2.74,-2.71l-2.36,0l-1.09,1.68l2.57,0l0.88,-1.68zm-1.41,2.71l-2.7,0l-1.08,1.68l2.91,0l0.87,-1.68zm-2.22,-2.71l-2.36,0l-1.41,1.68l2.57,0l1.2,-1.68zm-1.93,2.71l-2.7,0l-1.41,1.68l2.91,0l1.2,-1.68z"/>
   </g>
  </g>
  <g   id="shape25-41">
   <title transform="translate(0,0.9933900237083435) translate(112.3010025024414,-695.7479858398438) ">工作表.25</title>
   <desc transform="translate(0,0.9933900237083435) translate(112.3010025024414,-695.7479858398438) ">外网IPx.x.x.x</desc>
   <rect id="svg_22" class="st5" height="20" width="152" y="127.135404" x="112.301003"/>
   <text id="svg_23"  class="st6" y="140.735404" x="143.301003">外网IP：x.x.x.x</text>
  </g>
  <g   id="shape26-44">
   <title transform="translate(0,0.9933900237083435) translate(271.2439880371094,-694.4879760742188) ">工作表.26</title>
   <desc transform="translate(0,0.9933900237083435) translate(271.2439880371094,-694.4879760742188) ">内网IP192.168.0.24</desc>
   <rect id="svg_24" class="st5" height="20" width="152" y="128.395414" x="271.243988"/>
   <text id="svg_25"  class="st6" y="141.995414" x="287.243988">内网IP：192.168.0.24</text>
  </g>
  <g   id="shape29-47">
   <title transform="translate(0,0.9933900237083435) translate(46.56919860839844,-552.7559814453125) ">工作表.29</title>
   <desc transform="translate(0,0.9933900237083435) translate(46.56919860839844,-552.7559814453125) ">在B中输入命令 ssh -fCNL *:2250:localhost:7280 localhost</desc>
   <rect id="svg_26" class="st8" height="48.3812" width="260.99" y="241.746409" x="46.569199"/>
   <text id="svg_27"  class="st6" y="262.147409" x="50.569199">在B中输入命令：
    <tspan id="svg_28"  class="st9" dy="1.223em" x="50.569199">ssh</tspan>
    <tspan id="svg_29"  class="st9">-</tspan>
    <tspan id="svg_30"  class="st9">fCNL</tspan>
    <tspan id="svg_31"  class="st9">*:</tspan>
    <tspan id="svg_32" class="st10">2250</tspan>
    <tspan id="svg_33"  class="st9">:</tspan>
    <tspan id="svg_34"  class="st9">localhost</tspan>
    <tspan id="svg_35"  class="st9">:</tspan>
    <tspan id="svg_36"  class="st9">7280</tspan>
    <tspan id="svg_37"  class="st9">localhost</tspan></text>
  </g>
  <g   id="shape30-60">
   <title transform="translate(0,0.9933900237083435) translate(324,-552.7559814453125) ">工作表.30</title>
   <desc transform="translate(0,0.9933900237083435) translate(324,-552.7559814453125) ">在A中输入命令 ssh -fCNR 7280:localhost:22 root@x.x.x.x</desc>
   <rect id="svg_38" class="st11" height="48.3812" width="253.276" y="241.746409" x="324"/>
   <text id="svg_39"  class="st6" y="262.147409" x="328">在A中输入命令：
    <tspan id="svg_40"  class="st9" dy="1.223em" x="328">ssh</tspan>
    <tspan id="svg_41"  class="st9">-</tspan>
    <tspan id="svg_42"  class="st9">fCNR</tspan>
    <tspan id="svg_43"  class="st9">7280</tspan>
    <tspan id="svg_44"  class="st9">:</tspan>
    <tspan id="svg_45"  class="st9">localhost</tspan>
    <tspan id="svg_46"  class="st9">:</tspan>
    <tspan id="svg_47"  class="st9">22</tspan>
    <tspan id="svg_48"  class="st9">root</tspan>
    <tspan id="svg_49"  class="st9">@</tspan>
    <tspan id="svg_50" class="st10">x</tspan>
    <tspan id="svg_51" class="st10">.</tspan>
    <tspan id="svg_52" class="st10">x</tspan>
    <tspan id="svg_53" class="st10">.</tspan>
    <tspan id="svg_54" class="st10">x</tspan>
    <tspan id="svg_55" class="st10">.</tspan>
    <tspan id="svg_56" class="st10">x</tspan></text>
  </g>
  <g   id="shape31-80">
   <title transform="translate(0,0.9933900237083435) translate(46.56919860839844,-498.4070129394531) ">工作表.31</title>
   <desc transform="translate(0,0.9933900237083435) translate(46.56919860839844,-498.4070129394531) ">外网登陆内网服务器A ssh -p2250 username@x.x.x.x</desc>
   <rect id="svg_57" class="st12" height="34.9968" width="185.872" y="309.479377" x="46.569199"/>
   <text id="svg_58"  class="st6" y="323.196377" x="50.569199">外网登陆内网服务器A：
    <tspan id="svg_59"  class="st9" dy="1.223em" x="50.569199">ssh</tspan>
    <tspan id="svg_60"  class="st9">-</tspan>
    <tspan id="svg_61"  class="st9">p</tspan>
    <tspan id="svg_62" class="st10">2250</tspan>
    <tspan id="svg_63"  class="st9"/>
    <tspan id="svg_64" class="st10">username</tspan>
    <tspan id="svg_65"  class="st9">@</tspan>
    <tspan id="svg_66" class="st10">x</tspan>
    <tspan id="svg_67" class="st10">.</tspan>
    <tspan id="svg_68" class="st10">x</tspan>
    <tspan id="svg_69" class="st10">.</tspan>
    <tspan id="svg_70" class="st10">x</tspan>
    <tspan id="svg_71" class="st10">.</tspan>
    <tspan id="svg_72" class="st10">x</tspan></text>
  </g>
  <g   id="shape32-97">
   <title transform="translate(0,0.9933900237083435) translate(212.59800720214844,-645.0469970703125) ">工作表.32</title>
   <desc transform="translate(0,0.9933900237083435) translate(212.59800720214844,-645.0469970703125) ">7280</desc>
   <rect id="svg_73" class="st13" height="13.844" width="25.5118" y="183.992393" x="212.598007"/>
   <text id="svg_74"  class="st14" y="193.316393" x="217.358007">7280</text>
  </g>
  <g   id="shape33-100">
   <title transform="translate(0,0.9933900237083435) translate(297.63800048828125,-645.0469970703125) ">工作表.33</title>
   <desc transform="translate(0,0.9933900237083435) translate(297.63800048828125,-645.0469970703125) ">22</desc>
   <rect id="svg_75" class="st13" height="13.844" width="25.5118" y="183.992393" x="297.638"/>
   <text id="svg_76"  class="st14" y="193.316393" x="306.398">22</text>
  </g>
  <g    id="shape34-103">
   <title transform="translate(0,0.9933900237083435) translate(238.11000061035156,-647.4979858398438) ">动态连接线.34</title>
   <path id="svg_77" class="st15" d="m238.110001,188.295404l53.81,0"/>
  </g>
  <g   id="shape35-109">
   <title transform="translate(0,0.9933900237083435) translate(144.56700134277344,-645.0469970703125) ">工作表.35</title>
   <desc transform="translate(0,0.9933900237083435) translate(144.56700134277344,-645.0469970703125) ">2250</desc>
   <rect id="svg_78" class="st13" height="13.844" width="25.5118" y="183.992393" x="144.567001"/>
   <text id="svg_79"  class="st14" y="193.316393" x="149.327001">2250</text>
  </g>
  <g    id="shape36-112">
   <title transform="translate(0,0.9933900237083435) translate(77.95279693603516,-644.8820190429688) ">动态连接线.36</title>
   <path id="svg_80" class="st15" d="m77.952797,190.911371l60.89,0"/>
  </g>
  <g    id="shape37-117">
   <title transform="translate(0,0.9933900237083435) translate(151.64599609375,-641.666015625) ">动态连接线.37</title>
   <path id="svg_81" class="st17" d="m158.735996,201.217374l-12.95,0l0,-21.1l12.95,0"/>
  </g>
  <g    id="shape38-120">
   <title transform="translate(0,0.9933900237083435) translate(170.07899475097656,-644.8820190429688) ">动态连接线.38</title>
   <path id="svg_82" class="st18" d="m170.078995,190.911371l36.8,0"/>
  </g>
  <g    id="shape39-126">
   <title transform="translate(0,0.9933900237083435) translate(238.11000061035156,-642.2659912109375) ">动态连接线.39</title>
   <path id="svg_83" class="st20" d="m243.470001,193.527399l0.36,0l53.81,0"/>
  </g>
 </g>
 <g>
  <title>background</title>
 </g>
</svg>