<?xml version="1.0" encoding="UTF-8" standalone="no"?>
<!DOCTYPE svg PUBLIC "-//W3C//DTD SVG 1.1//EN" "http://www.w3.org/Graphics/SVG/1.1/DTD/svg11.dtd">
<!-- 由 Microsoft Visio, SVG Export 生成 ssh反向代理.svg Page-1 -->
<svg xmlns="http://www.w3.org/2000/svg" xmlns:xlink="http://www.w3.org/1999/xlink" xmlns:ev="http://www.w3.org/2001/xml-events"
		xmlns:v="http://schemas.microsoft.com/visio/2003/SVGExtensions/" width="8.26772in" height="11.6929in"
		viewBox="0 0 595.276 841.89" xml:space="preserve" color-interpolation-filters="sRGB" class="st22">
	<v:documentProperties v:langID="2052" v:metric="true" v:viewMarkup="false">
		<v:userDefs>
			<v:ud v:nameU="msvNoAutoConnect" v:val="VT0(1):26"/>
		</v:userDefs>
	</v:documentProperties>

	<style type="text/css">
	<![CDATA[
		.st1 {fill:#ffffff;stroke:#000000;stroke-linecap:round;stroke-linejoin:round;stroke-width:0.75}
		.st2 {fill:#000000}
		.st3 {stroke:#000000;stroke-dasharray:5.25,3.75;stroke-linecap:round;stroke-linejoin:round;stroke-width:0.75}
		.st4 {fill:#4d1e1a;font-family:宋体;font-size:0.833336em;font-weight:bold}
		.st5 {fill:none;stroke:none;stroke-linecap:round;stroke-linejoin:round;stroke-width:0.75}
		.st6 {fill:#000000;font-family:宋体;font-size:1.00001em}
		.st7 {stroke:#000000;stroke-dasharray:7,5,0,5;stroke-linecap:round;stroke-linejoin:round;stroke-width:1}
		.st8 {fill:#ab9ac0;stroke:none;stroke-linecap:round;stroke-linejoin:round;stroke-width:0.75}
		.st9 {font-family:Calibri;font-size:1em}
		.st10 {font-family:Microsoft Sans Serif;font-size:1em}
		.st11 {fill:#f59d56;stroke:none;stroke-linecap:round;stroke-linejoin:round;stroke-width:0.75}
		.st12 {fill:#4bacc6;stroke:none;stroke-linecap:round;stroke-linejoin:round;stroke-width:0.75}
		.st13 {fill:#9dbb61;stroke:none;stroke-linecap:round;stroke-linejoin:round;stroke-width:0.75}
		.st14 {fill:#000000;font-family:宋体;font-size:0.666664em}
		.st15 {marker-end:url(#mrkr5-108);stroke:#c05046;stroke-linecap:round;stroke-linejoin:round;stroke-width:0.75}
		.st16 {fill:#c05046;fill-opacity:1;stroke:#c05046;stroke-opacity:1;stroke-width:0.22935779816514}
		.st17 {stroke:#000000;stroke-linecap:round;stroke-linejoin:round;stroke-width:0.75}
		.st18 {marker-end:url(#mrkr5-125);stroke:#4bacc6;stroke-linecap:round;stroke-linejoin:round;stroke-width:0.75}
		.st19 {fill:#4bacc6;fill-opacity:1;stroke:#4bacc6;stroke-opacity:1;stroke-width:0.22935779816514}
		.st20 {marker-start:url(#mrkr5-131);stroke:#fbd7bb;stroke-dasharray:5.25,3.75;stroke-linecap:round;stroke-linejoin:round;stroke-width:0.75}
		.st21 {fill:#fbd7bb;fill-opacity:1;stroke:#fbd7bb;stroke-opacity:1;stroke-width:0.22935779816514}
		.st22 {fill:none;fill-rule:evenodd;font-size:12px;overflow:visible;stroke-linecap:square;stroke-miterlimit:3}
	]]>
	</style>

	<defs id="Markers">
		<g id="lend5">
			<path d="M 2 1 L -0 0 L 1.98117 -0.993387 C 1.67173 -0.364515 1.67301 0.372641 1.98465 1.00043 " style="stroke:none"/>
		</g>
		<marker id="mrkr5-108" class="st16" v:arrowType="5" v:arrowSize="2" v:setback="7.63" refX="-7.63" orient="auto"
				markerUnits="strokeWidth" overflow="visible">
			<use xlink:href="#lend5" transform="scale(-4.36,-4.36) "/>
		</marker>
		<marker id="mrkr5-125" class="st19" v:arrowType="5" v:arrowSize="2" v:setback="7.63" refX="-7.63" orient="auto"
				markerUnits="strokeWidth" overflow="visible">
			<use xlink:href="#lend5" transform="scale(-4.36,-4.36) "/>
		</marker>
		<marker id="mrkr5-131" class="st21" v:arrowType="5" v:arrowSize="2" v:setback="7.15" refX="7.15" orient="auto"
				markerUnits="strokeWidth" overflow="visible">
			<use xlink:href="#lend5" transform="scale(4.36) "/>
		</marker>
	</defs>
	<g v:mID="0" v:index="1" v:groupContext="foregroundPage">
		<title>页-1</title>
		<v:pageProperties v:drawingScale="0.0393701" v:pageScale="0.0393701" v:drawingUnits="24" v:shadowOffsetX="8.50394"
				v:shadowOffsetY="-8.50394"/>
		<v:layer v:name="连接线" v:index="0"/>
		<g id="group1-1" transform="translate(152.868,-616.535)" v:mID="1" v:groupContext="group">
			<v:custProps>
				<v:cp v:nameU="AssetNumber" v:lbl="资产号" v:prompt="" v:type="0" v:format="" v:sortKey="Asset" v:invis="false"
						v:ask="false" v:langID="2052" v:cal="0"/>
				<v:cp v:nameU="SerialNumber" v:lbl="序列号" v:prompt="" v:type="0" v:format="" v:sortKey="Asset" v:invis="false"
						v:ask="false" v:langID="2052" v:cal="0"/>
				<v:cp v:nameU="Location" v:lbl="位置" v:prompt="" v:type="0" v:format="" v:sortKey="Asset" v:invis="false"
						v:ask="false" v:langID="2052" v:cal="0"/>
				<v:cp v:nameU="Building" v:lbl="构建" v:prompt="" v:type="0" v:format="" v:sortKey="Asset" v:invis="false"
						v:ask="false" v:langID="2052" v:cal="0"/>
				<v:cp v:nameU="Room" v:lbl="空间" v:prompt="" v:type="0" v:format="" v:sortKey="Asset" v:invis="false" v:ask="false"
						v:langID="2052" v:cal="0"/>
				<v:cp v:nameU="Manufacturer" v:lbl="制造商" v:prompt="" v:type="0" v:format="" v:sortKey="Equipment" v:invis="false"
						v:ask="false" v:langID="2052" v:cal="0"/>
				<v:cp v:nameU="ProductNumber" v:lbl="产品编号" v:prompt="" v:type="0" v:format="" v:sortKey="Equipment" v:invis="false"
						v:ask="false" v:langID="2052" v:cal="0"/>
				<v:cp v:nameU="PartNumber" v:lbl="部件号" v:prompt="" v:type="0" v:format="" v:sortKey="Equipment" v:invis="false"
						v:ask="false" v:langID="2052" v:cal="0"/>
				<v:cp v:nameU="ProductDescription" v:lbl="产品说明" v:prompt="" v:type="0" v:format="" v:sortKey="Equipment"
						v:invis="false" v:ask="false" v:langID="2052" v:cal="0"/>
				<v:cp v:nameU="NetworkName" v:lbl="网络名称" v:prompt="" v:type="0" v:format="" v:sortKey="Network" v:invis="false"
						v:ask="false" v:langID="2052" v:cal="0"/>
				<v:cp v:nameU="IPAddress" v:lbl="IP 地址" v:prompt="" v:type="0" v:format="" v:sortKey="Network" v:invis="false"
						v:ask="false" v:langID="2052" v:cal="0"/>
				<v:cp v:nameU="SubnetMask" v:lbl="子网掩码" v:prompt="" v:type="0" v:format="" v:sortKey="Network" v:invis="false"
						v:ask="false" v:langID="2052" v:cal="0"/>
				<v:cp v:nameU="AdminInterface" v:lbl="管理接口" v:prompt="" v:type="0" v:format="" v:sortKey="Network" v:invis="false"
						v:ask="false" v:langID="2052" v:cal="0"/>
				<v:cp v:nameU="NumberofPorts" v:lbl="端口数目" v:prompt="" v:type="0" v:format="" v:sortKey="Network" v:invis="false"
						v:ask="false" v:langID="2052" v:cal="0"/>
				<v:cp v:nameU="CommunityString" v:lbl="团体字符串" v:prompt="" v:type="0" v:format="" v:sortKey="Network"
						v:invis="false" v:ask="false" v:langID="2052" v:cal="0"/>
				<v:cp v:nameU="NetworkDescription" v:lbl="网络说明" v:prompt="" v:type="0" v:format="" v:sortKey="Network"
						v:invis="false" v:ask="false" v:langID="2052" v:cal="0"/>
				<v:cp v:nameU="MACAddress" v:lbl="MAC 地址" v:prompt="" v:type="0" v:format="" v:sortKey="Network" v:invis="false"
						v:ask="false" v:langID="2052" v:cal="0"/>
				<v:cp v:nameU="CPU" v:lbl="CPU" v:prompt="" v:type="0" v:format="" v:sortKey="Workstation" v:invis="false"
						v:ask="false" v:langID="2052" v:cal="0"/>
				<v:cp v:nameU="Memory" v:lbl="内存" v:prompt="" v:type="0" v:format="" v:sortKey="Workstation" v:invis="false"
						v:ask="false" v:langID="2052" v:cal="0"/>
				<v:cp v:nameU="OperatingSystem" v:lbl="操作系统" v:prompt="" v:type="0" v:format="" v:sortKey="Workstation"
						v:invis="false" v:ask="false" v:langID="2052" v:cal="0"/>
				<v:cp v:nameU="HardDriveSize" v:lbl="硬盘容量" v:prompt="" v:type="0" v:format="" v:sortKey="Workstation"
						v:invis="false" v:ask="false" v:langID="2052" v:cal="0"/>
				<v:cp v:nameU="Department" v:lbl="部门" v:prompt="" v:type="0" v:format="" v:sortKey="" v:invis="false" v:ask="false"
						v:langID="2052" v:cal="0"/>
				<v:cp v:nameU="ShapeClass" v:lbl="ShapeClass" v:prompt="" v:type="0" v:format="" v:sortKey="" v:invis="true"
						v:ask="false" v:langID="2052" v:cal="0" v:val="VT4(设备)"/>
				<v:cp v:nameU="ShapeType" v:lbl="ShapeType" v:prompt="" v:type="0" v:format="" v:sortKey="" v:invis="true"
						v:ask="false" v:langID="2052" v:cal="0" v:val="VT4(计算机)"/>
				<v:cp v:nameU="SubShapeType" v:lbl="SubShapeType" v:prompt="" v:type="0" v:format="" v:sortKey="" v:invis="true"
						v:ask="false" v:langID="2052" v:cal="0" v:val="VT4(桌面)"/>
				<v:cp v:nameU="BelongsTo" v:lbl="属于" v:prompt="" v:type="0" v:format="" v:sortKey="" v:invis="true" v:ask="false"
						v:langID="2052" v:cal="0"/>
			</v:custProps>
			<v:userDefs>
				<v:ud v:nameU="visVersion" v:prompt="" v:val="VT0(15):26"/>
				<v:ud v:nameU="ShapeClass" v:prompt="" v:val="VT0(5):26"/>
				<v:ud v:nameU="SolSH" v:prompt="" v:val="VT15({BF0433D9-CD73-4EB5-8390-8653BE590246}):41"/>
				<v:ud v:nameU="visLegendShape" v:prompt="" v:val="VT0(2):26"/>
			</v:userDefs>
			<title>虚拟 PC</title>
			<desc>B</desc>
			<g id="shape2-2" v:mID="2" v:groupContext="shape" transform="translate(5.24189,-8.0912)">
				<title>工作表.2</title>
				<path d="M42.75 826.39 L42.75 831.72 L45.97 831.72 L49.01 835.53 L63.1 835.53 L63.1 787.21 L42.75 787.21 L42.75 794.14
							 L51.48 794.14 L51.48 826.39 L42.75 826.39 ZM51.48 794.14 L3.15 794.14 L3.15 826.39 L51.48 826.39 L51.48
							 794.14 ZM54.08 841.89 L45.97 831.72 L8.11 831.72 L0 841.89 L54.08 841.89 ZM31.29 826.39 L22.79 826.39
							 L22.79 831.72 L31.29 831.72 L31.29 826.39 Z" class="st1"/>
			</g>
			<g id="shape3-4" v:mID="3" v:groupContext="shape" transform="translate(11.5218,-26.4932)">
				<title>工作表.3</title>
				<v:userDefs>
					<v:ud v:nameU="SurroundingRegionColor" v:prompt="" v:val="VT5(1)"/>
				</v:userDefs>
				<path d="M42.13 815.74 L0 815.74 L0 841.89 L42.13 841.89 L42.13 815.74 Z" class="st1"/>
			</g>
			<g id="shape4-6" v:mID="4" v:groupContext="shape" transform="translate(12.6014,-10.1903)">
				<title>工作表.4</title>
				<v:userDefs>
					<v:ud v:nameU="SurroundingRegionColor" v:prompt="" v:val="VT5(1)"/>
				</v:userDefs>
				<path d="M47.59 794.72 L51.95 794.72 L51.95 793.02 L47.59 793.02 L47.59 794.72 ZM47.59 797.74 L51.95 797.74 L51.95
							 796.05 L47.59 796.05 L47.59 797.74 ZM36.93 837.95 L34.53 837.95 L35.87 839.44 L38.46 839.44 L36.93 837.95
							 ZM34.21 835.29 L32.14 835.29 L33.59 836.9 L35.86 836.9 L34.21 835.29 ZM33.23 837.95 L30.83 837.95 L31.88
							 839.44 L34.47 839.44 L33.23 837.95 ZM31.03 835.29 L28.96 835.29 L30.09 836.9 L32.36 836.9 L31.03 835.29
							 ZM29.53 837.95 L27.13 837.95 L27.9 839.44 L30.49 839.44 L29.53 837.95 ZM27.85 835.29 L25.78 835.29 L26.6
							 836.93 L28.88 836.93 L27.85 835.29 ZM25.84 837.95 L23.43 837.95 L23.91 839.44 L26.5 839.44 L25.84 837.95
							 ZM24.71 835.41 L22.62 835.41 L23.11 836.93 L25.39 836.93 L24.71 835.41 ZM22.14 837.95 L19.74 837.95
							 L19.93 839.44 L22.52 839.44 L22.14 837.95 ZM21.53 835.53 L19.43 835.53 L19.62 837.03 L21.91 837.03 L21.53
							 835.53 ZM18.3 835.53 L16.2 835.53 L16.1 837.03 L18.39 837.03 L18.3 835.53 ZM18.44 837.95 L16.04 837.95
							 L15.94 839.44 L18.53 839.44 L18.44 837.95 ZM15.07 835.53 L12.97 835.53 L12.58 837.03 L14.87 837.03 L15.07
							 835.53 ZM14.75 837.95 L12.34 837.95 L11.96 839.44 L14.55 839.44 L14.75 837.95 ZM27.93 840.4 L10.97 840.4
							 L10.53 841.89 L28.67 841.89 L27.93 840.4 ZM11.84 835.53 L9.74 835.53 L9.06 837.03 L11.35 837.03 L11.84
							 835.53 ZM11.05 837.95 L8.65 837.95 L7.97 839.44 L10.56 839.44 L11.05 837.95 ZM8.61 835.53 L6.51 835.53
							 L5.54 837.03 L7.83 837.03 L8.61 835.53 ZM7.35 837.95 L4.95 837.95 L3.99 839.44 L6.58 839.44 L7.35 837.95
							 ZM5.38 835.53 L3.28 835.53 L2.02 837.03 L4.31 837.03 L5.38 835.53 ZM3.66 837.95 L1.25 837.95 L0 839.44
							 L2.59 839.44 L3.66 837.95 Z" class="st2"/>
			</g>
			<g id="shape5-9" v:mID="5" v:groupContext="shape" transform="translate(0,-5.56719)">
				<title>工作表.5</title>
				<path d="M45.46 789.09 L5.86 789.09 L5.86 826.39 L12.36 826.4 L0 841.89 L64.56 841.89 L59.49 835.53 L70.87 835.53
							 L70.87 782.16 L45.46 782.16 L45.46 789.09" class="st3"/>
			</g>
			<g id="shape1-12" v:mID="1" v:groupContext="groupContent">
				<v:textBlock v:margins="rect(4,4,4,4)" v:tabSpace="42.5197"/>
				<v:textRect cx="35.4331" cy="851.892" width="18.09" height="20.0036"/>
				<text x="32.91" y="854.89" class="st4" v:langID="2052"><v:paragraph v:horizAlign="1"/><v:tabList/>B</text>			</g>
		</g>
		<g id="shape8-14" v:mID="8" v:groupContext="shape" transform="translate(43.9663,-737.008)">
			<title>工作表.8</title>
			<desc>外网</desc>
			<v:textBlock v:margins="rect(4,4,4,4)" v:tabSpace="42.5197"/>
			<v:textRect cx="70.1429" cy="832.66" width="140.29" height="18.4586"/>
			<rect x="0" y="823.431" width="140.286" height="18.4586" class="st5"/>
			<text x="58.14" y="836.26" class="st6" v:langID="2052"><v:paragraph v:horizAlign="1"/><v:tabList/>外网</text>		</g>
		<g id="shape9-17" v:mID="9" v:groupContext="shape" transform="translate(150.772,-737.008)">
			<title>工作表.9</title>
			<desc>内网</desc>
			<v:textBlock v:margins="rect(4,4,4,4)" v:tabSpace="42.5197"/>
			<v:textRect cx="76" cy="831.89" width="152.01" height="20"/>
			<rect x="0" y="821.89" width="152" height="20" class="st5"/>
			<text x="64" y="835.49" class="st6" v:langID="2052"><v:paragraph v:horizAlign="1"/><v:tabList/>内网</text>		</g>
		<g id="shape14-20" v:mID="14" v:groupContext="shape" v:layerMember="0" transform="translate(158.841,-751.181)">
			<title>动态连接线</title>
			<path d="M6.99 841.89 L7.19 1040.31" class="st7"/>
		</g>
		<g id="group15-23" transform="translate(311.811,-616.535)" v:mID="15" v:groupContext="group">
			<v:custProps>
				<v:cp v:nameU="AssetNumber" v:lbl="资产号" v:prompt="" v:type="0" v:format="" v:sortKey="Asset" v:invis="false"
						v:ask="false" v:langID="2052" v:cal="0"/>
				<v:cp v:nameU="SerialNumber" v:lbl="序列号" v:prompt="" v:type="0" v:format="" v:sortKey="Asset" v:invis="false"
						v:ask="false" v:langID="2052" v:cal="0"/>
				<v:cp v:nameU="Location" v:lbl="位置" v:prompt="" v:type="0" v:format="" v:sortKey="Asset" v:invis="false"
						v:ask="false" v:langID="2052" v:cal="0"/>
				<v:cp v:nameU="Building" v:lbl="构建" v:prompt="" v:type="0" v:format="" v:sortKey="Asset" v:invis="false"
						v:ask="false" v:langID="2052" v:cal="0"/>
				<v:cp v:nameU="Room" v:lbl="空间" v:prompt="" v:type="0" v:format="" v:sortKey="Asset" v:invis="false" v:ask="false"
						v:langID="2052" v:cal="0"/>
				<v:cp v:nameU="Manufacturer" v:lbl="制造商" v:prompt="" v:type="0" v:format="" v:sortKey="Equipment" v:invis="false"
						v:ask="false" v:langID="2052" v:cal="0"/>
				<v:cp v:nameU="ProductNumber" v:lbl="产品编号" v:prompt="" v:type="0" v:format="" v:sortKey="Equipment" v:invis="false"
						v:ask="false" v:langID="2052" v:cal="0"/>
				<v:cp v:nameU="PartNumber" v:lbl="部件号" v:prompt="" v:type="0" v:format="" v:sortKey="Equipment" v:invis="false"
						v:ask="false" v:langID="2052" v:cal="0"/>
				<v:cp v:nameU="ProductDescription" v:lbl="产品说明" v:prompt="" v:type="0" v:format="" v:sortKey="Equipment"
						v:invis="false" v:ask="false" v:langID="2052" v:cal="0"/>
				<v:cp v:nameU="NetworkName" v:lbl="网络名称" v:prompt="" v:type="0" v:format="" v:sortKey="Network" v:invis="false"
						v:ask="false" v:langID="2052" v:cal="0"/>
				<v:cp v:nameU="IPAddress" v:lbl="IP 地址" v:prompt="" v:type="0" v:format="" v:sortKey="Network" v:invis="false"
						v:ask="false" v:langID="2052" v:cal="0"/>
				<v:cp v:nameU="SubnetMask" v:lbl="子网掩码" v:prompt="" v:type="0" v:format="" v:sortKey="Network" v:invis="false"
						v:ask="false" v:langID="2052" v:cal="0"/>
				<v:cp v:nameU="AdminInterface" v:lbl="管理接口" v:prompt="" v:type="0" v:format="" v:sortKey="Network" v:invis="false"
						v:ask="false" v:langID="2052" v:cal="0"/>
				<v:cp v:nameU="NumberofPorts" v:lbl="端口数目" v:prompt="" v:type="0" v:format="" v:sortKey="Network" v:invis="false"
						v:ask="false" v:langID="2052" v:cal="0"/>
				<v:cp v:nameU="CommunityString" v:lbl="团体字符串" v:prompt="" v:type="0" v:format="" v:sortKey="Network"
						v:invis="false" v:ask="false" v:langID="2052" v:cal="0"/>
				<v:cp v:nameU="NetworkDescription" v:lbl="网络说明" v:prompt="" v:type="0" v:format="" v:sortKey="Network"
						v:invis="false" v:ask="false" v:langID="2052" v:cal="0"/>
				<v:cp v:nameU="MACAddress" v:lbl="MAC 地址" v:prompt="" v:type="0" v:format="" v:sortKey="Network" v:invis="false"
						v:ask="false" v:langID="2052" v:cal="0"/>
				<v:cp v:nameU="CPU" v:lbl="CPU" v:prompt="" v:type="0" v:format="" v:sortKey="Workstation" v:invis="false"
						v:ask="false" v:langID="2052" v:cal="0"/>
				<v:cp v:nameU="Memory" v:lbl="内存" v:prompt="" v:type="0" v:format="" v:sortKey="Workstation" v:invis="false"
						v:ask="false" v:langID="2052" v:cal="0"/>
				<v:cp v:nameU="OperatingSystem" v:lbl="操作系统" v:prompt="" v:type="0" v:format="" v:sortKey="Workstation"
						v:invis="false" v:ask="false" v:langID="2052" v:cal="0"/>
				<v:cp v:nameU="HardDriveSize" v:lbl="硬盘容量" v:prompt="" v:type="0" v:format="" v:sortKey="Workstation"
						v:invis="false" v:ask="false" v:langID="2052" v:cal="0"/>
				<v:cp v:nameU="Department" v:lbl="部门" v:prompt="" v:type="0" v:format="" v:sortKey="" v:invis="false" v:ask="false"
						v:langID="2052" v:cal="0"/>
				<v:cp v:nameU="ShapeClass" v:lbl="ShapeClass" v:prompt="" v:type="0" v:format="" v:sortKey="" v:invis="true"
						v:ask="false" v:langID="2052" v:cal="0" v:val="VT4(设备)"/>
				<v:cp v:nameU="ShapeType" v:lbl="ShapeType" v:prompt="" v:type="0" v:format="" v:sortKey="" v:invis="true"
						v:ask="false" v:langID="2052" v:cal="0" v:val="VT4(计算机)"/>
				<v:cp v:nameU="SubShapeType" v:lbl="SubShapeType" v:prompt="" v:type="0" v:format="" v:sortKey="" v:invis="true"
						v:ask="false" v:langID="2052" v:cal="0" v:val="VT4(桌面)"/>
				<v:cp v:nameU="BelongsTo" v:lbl="属于" v:prompt="" v:type="0" v:format="" v:sortKey="" v:invis="true" v:ask="false"
						v:langID="2052" v:cal="0"/>
			</v:custProps>
			<v:userDefs>
				<v:ud v:nameU="visVersion" v:prompt="" v:val="VT0(15):26"/>
				<v:ud v:nameU="ShapeClass" v:prompt="" v:val="VT0(5):26"/>
				<v:ud v:nameU="SolSH" v:prompt="" v:val="VT15({BF0433D9-CD73-4EB5-8390-8653BE590246}):41"/>
				<v:ud v:nameU="visLegendShape" v:prompt="" v:val="VT0(2):26"/>
			</v:userDefs>
			<title>PC</title>
			<desc>A</desc>
			<g id="shape16-24" v:mID="16" v:groupContext="shape" transform="translate(0,-4.72617)">
				<title>工作表.16</title>
				<path d="M48.01 824.49 L48.01 830.47 L51.62 830.47 L55.04 834.75 L70.87 834.75 L70.87 780.48 L48.01 780.48 L48.01
							 788.26 L57.81 788.26 L57.81 824.49 L48.01 824.49 ZM57.81 788.26 L3.53 788.26 L3.53 824.49 L57.81 824.49
							 L57.81 788.26 ZM60.73 841.89 L51.62 830.47 L9.11 830.47 L0 841.89 L60.73 841.89 ZM35.14 824.49 L25.59
							 824.49 L25.59 830.47 L35.14 830.47 L35.14 824.49 Z" class="st1"/>
			</g>
			<g id="shape17-26" v:mID="17" v:groupContext="shape" transform="translate(7.05282,-25.393)">
				<title>工作表.17</title>
				<v:userDefs>
					<v:ud v:nameU="SurroundingRegionColor" v:prompt="" v:val="VT5(1)"/>
				</v:userDefs>
				<path d="M47.32 812.52 L0 812.52 L0 841.89 L47.32 841.89 L47.32 812.52 Z" class="st1"/>
			</g>
			<g id="shape18-28" v:mID="18" v:groupContext="shape" transform="translate(8.26528,-7.08364)">
				<title>工作表.18</title>
				<v:userDefs>
					<v:ud v:nameU="SurroundingRegionColor" v:prompt="" v:val="VT5(1)"/>
				</v:userDefs>
				<path d="M53.45 788.91 L58.34 788.91 L58.34 787.01 L53.45 787.01 L53.45 788.91 ZM53.45 792.31 L58.34 792.31 L58.34
							 790.4 L53.45 790.4 L53.45 792.31 ZM41.47 837.46 L38.77 837.46 L40.28 839.14 L43.19 839.14 L41.47 837.46
							 ZM38.42 834.48 L36.1 834.48 L37.72 836.29 L40.27 836.29 L38.42 834.48 ZM37.32 837.46 L34.62 837.46 L35.81
							 839.14 L38.72 839.14 L37.32 837.46 ZM34.84 834.48 L32.52 834.48 L33.79 836.29 L36.35 836.29 L34.84 834.48
							 ZM33.17 837.46 L30.47 837.46 L31.33 839.14 L34.24 839.14 L33.17 837.46 ZM31.27 834.48 L28.95 834.48
							 L29.88 836.32 L32.44 836.32 L31.27 834.48 ZM29.02 837.46 L26.32 837.46 L26.86 839.14 L29.77 839.14 L29.02
							 837.46 ZM27.75 834.61 L25.4 834.61 L25.95 836.32 L28.51 836.32 L27.75 834.61 ZM24.87 837.46 L22.17 837.46
							 L22.38 839.14 L25.29 839.14 L24.87 837.46 ZM24.18 834.75 L21.82 834.75 L22.04 836.43 L24.61 836.43 L24.18
							 834.75 ZM20.55 834.75 L18.19 834.75 L18.08 836.43 L20.65 836.43 L20.55 834.75 ZM20.71 837.46 L18.01
							 837.46 L17.9 839.14 L20.81 839.14 L20.71 837.46 ZM16.93 834.75 L14.57 834.75 L14.13 836.43 L16.7 836.43
							 L16.93 834.75 ZM16.56 837.46 L13.86 837.46 L13.43 839.14 L16.34 839.14 L16.56 837.46 ZM31.37 840.21
							 L12.32 840.21 L11.83 841.89 L32.19 841.89 L31.37 840.21 ZM13.3 834.75 L10.94 834.75 L10.18 836.43 L12.75
							 836.43 L13.3 834.75 ZM12.41 837.46 L9.71 837.46 L8.95 839.14 L11.86 839.14 L12.41 837.46 ZM9.67 834.75
							 L7.31 834.75 L6.22 836.43 L8.79 836.43 L9.67 834.75 ZM8.26 837.46 L5.56 837.46 L4.48 839.14 L7.39 839.14
							 L8.26 837.46 ZM6.04 834.75 L3.68 834.75 L2.27 836.43 L4.84 836.43 L6.04 834.75 ZM4.11 837.46 L1.41 837.46
							 L0 839.14 L2.91 839.14 L4.11 837.46 Z" class="st2"/>
			</g>
			<g id="shape15-31" v:mID="15" v:groupContext="groupContent">
				<v:textBlock v:margins="rect(4,4,4,4)" v:tabSpace="42.5197"/>
				<v:textRect cx="35.4331" cy="851.892" width="18.09" height="20.0036"/>
				<text x="32.91" y="854.89" class="st4" v:langID="2052"><v:paragraph v:horizAlign="1"/><v:tabList/>A</text>			</g>
		</g>
		<g id="group20-33" transform="translate(7.08661,-616.535)" v:mID="20" v:groupContext="group">
			<v:custProps>
				<v:cp v:nameU="AssetNumber" v:lbl="资产号" v:prompt="" v:type="0" v:format="" v:sortKey="Asset" v:invis="false"
						v:ask="false" v:langID="2052" v:cal="0"/>
				<v:cp v:nameU="SerialNumber" v:lbl="序列号" v:prompt="" v:type="0" v:format="" v:sortKey="Asset" v:invis="false"
						v:ask="false" v:langID="2052" v:cal="0"/>
				<v:cp v:nameU="Location" v:lbl="位置" v:prompt="" v:type="0" v:format="" v:sortKey="Asset" v:invis="false"
						v:ask="false" v:langID="2052" v:cal="0"/>
				<v:cp v:nameU="Building" v:lbl="构建" v:prompt="" v:type="0" v:format="" v:sortKey="Asset" v:invis="false"
						v:ask="false" v:langID="2052" v:cal="0"/>
				<v:cp v:nameU="Room" v:lbl="空间" v:prompt="" v:type="0" v:format="" v:sortKey="Asset" v:invis="false" v:ask="false"
						v:langID="2052" v:cal="0"/>
				<v:cp v:nameU="Manufacturer" v:lbl="制造商" v:prompt="" v:type="0" v:format="" v:sortKey="Equipment" v:invis="false"
						v:ask="false" v:langID="2052" v:cal="0"/>
				<v:cp v:nameU="ProductNumber" v:lbl="产品编号" v:prompt="" v:type="0" v:format="" v:sortKey="Equipment" v:invis="false"
						v:ask="false" v:langID="2052" v:cal="0"/>
				<v:cp v:nameU="PartNumber" v:lbl="部件号" v:prompt="" v:type="0" v:format="" v:sortKey="Equipment" v:invis="false"
						v:ask="false" v:langID="2052" v:cal="0"/>
				<v:cp v:nameU="ProductDescription" v:lbl="产品说明" v:prompt="" v:type="0" v:format="" v:sortKey="Equipment"
						v:invis="false" v:ask="false" v:langID="2052" v:cal="0"/>
				<v:cp v:nameU="NetworkName" v:lbl="网络名称" v:prompt="" v:type="0" v:format="" v:sortKey="Network" v:invis="false"
						v:ask="false" v:langID="2052" v:cal="0"/>
				<v:cp v:nameU="IPAddress" v:lbl="IP 地址" v:prompt="" v:type="0" v:format="" v:sortKey="Network" v:invis="false"
						v:ask="false" v:langID="2052" v:cal="0"/>
				<v:cp v:nameU="SubnetMask" v:lbl="子网掩码" v:prompt="" v:type="0" v:format="" v:sortKey="Network" v:invis="false"
						v:ask="false" v:langID="2052" v:cal="0"/>
				<v:cp v:nameU="AdminInterface" v:lbl="管理接口" v:prompt="" v:type="0" v:format="" v:sortKey="Network" v:invis="false"
						v:ask="false" v:langID="2052" v:cal="0"/>
				<v:cp v:nameU="NumberofPorts" v:lbl="端口数目" v:prompt="" v:type="0" v:format="" v:sortKey="Network" v:invis="false"
						v:ask="false" v:langID="2052" v:cal="0"/>
				<v:cp v:nameU="CommunityString" v:lbl="团体字符串" v:prompt="" v:type="0" v:format="" v:sortKey="Network"
						v:invis="false" v:ask="false" v:langID="2052" v:cal="0"/>
				<v:cp v:nameU="NetworkDescription" v:lbl="网络说明" v:prompt="" v:type="0" v:format="" v:sortKey="Network"
						v:invis="false" v:ask="false" v:langID="2052" v:cal="0"/>
				<v:cp v:nameU="MACAddress" v:lbl="MAC 地址" v:prompt="" v:type="0" v:format="" v:sortKey="Network" v:invis="false"
						v:ask="false" v:langID="2052" v:cal="0"/>
				<v:cp v:nameU="CPU" v:lbl="CPU" v:prompt="" v:type="0" v:format="" v:sortKey="Workstation" v:invis="false"
						v:ask="false" v:langID="2052" v:cal="0"/>
				<v:cp v:nameU="Memory" v:lbl="内存" v:prompt="" v:type="0" v:format="" v:sortKey="Workstation" v:invis="false"
						v:ask="false" v:langID="2052" v:cal="0"/>
				<v:cp v:nameU="OperatingSystem" v:lbl="操作系统" v:prompt="" v:type="0" v:format="" v:sortKey="Workstation"
						v:invis="false" v:ask="false" v:langID="2052" v:cal="0"/>
				<v:cp v:nameU="HardDriveSize" v:lbl="硬盘容量" v:prompt="" v:type="0" v:format="" v:sortKey="Workstation"
						v:invis="false" v:ask="false" v:langID="2052" v:cal="0"/>
				<v:cp v:nameU="Department" v:lbl="部门" v:prompt="" v:type="0" v:format="" v:sortKey="" v:invis="false" v:ask="false"
						v:langID="2052" v:cal="0"/>
				<v:cp v:nameU="ShapeClass" v:lbl="ShapeClass" v:prompt="" v:type="0" v:format="" v:sortKey="" v:invis="true"
						v:ask="false" v:langID="2052" v:cal="0" v:val="VT4(设备)"/>
				<v:cp v:nameU="ShapeType" v:lbl="ShapeType" v:prompt="" v:type="0" v:format="" v:sortKey="" v:invis="true"
						v:ask="false" v:langID="2052" v:cal="0" v:val="VT4(计算机)"/>
				<v:cp v:nameU="SubShapeType" v:lbl="SubShapeType" v:prompt="" v:type="0" v:format="" v:sortKey="" v:invis="true"
						v:ask="false" v:langID="2052" v:cal="0" v:val="VT4(桌面)"/>
				<v:cp v:nameU="BelongsTo" v:lbl="属于" v:prompt="" v:type="0" v:format="" v:sortKey="" v:invis="true" v:ask="false"
						v:langID="2052" v:cal="0"/>
			</v:custProps>
			<v:userDefs>
				<v:ud v:nameU="visVersion" v:prompt="" v:val="VT0(15):26"/>
				<v:ud v:nameU="ShapeClass" v:prompt="" v:val="VT0(5):26"/>
				<v:ud v:nameU="SolSH" v:prompt="" v:val="VT15({BF0433D9-CD73-4EB5-8390-8653BE590246}):41"/>
				<v:ud v:nameU="visLegendShape" v:prompt="" v:val="VT0(2):26"/>
			</v:userDefs>
			<title>PC.20</title>
			<g id="shape21-34" v:mID="21" v:groupContext="shape" transform="translate(0,-4.72617)">
				<title>工作表.21</title>
				<path d="M48.01 824.49 L48.01 830.47 L51.62 830.47 L55.04 834.75 L70.87 834.75 L70.87 780.48 L48.01 780.48 L48.01
							 788.26 L57.81 788.26 L57.81 824.49 L48.01 824.49 ZM57.81 788.26 L3.53 788.26 L3.53 824.49 L57.81 824.49
							 L57.81 788.26 ZM60.73 841.89 L51.62 830.47 L9.11 830.47 L0 841.89 L60.73 841.89 ZM35.14 824.49 L25.59
							 824.49 L25.59 830.47 L35.14 830.47 L35.14 824.49 Z" class="st1"/>
			</g>
			<g id="shape22-36" v:mID="22" v:groupContext="shape" transform="translate(7.05282,-25.393)">
				<title>工作表.22</title>
				<v:userDefs>
					<v:ud v:nameU="SurroundingRegionColor" v:prompt="" v:val="VT5(1)"/>
				</v:userDefs>
				<path d="M47.32 812.52 L0 812.52 L0 841.89 L47.32 841.89 L47.32 812.52 Z" class="st1"/>
			</g>
			<g id="shape23-38" v:mID="23" v:groupContext="shape" transform="translate(8.26528,-7.08364)">
				<title>工作表.23</title>
				<v:userDefs>
					<v:ud v:nameU="SurroundingRegionColor" v:prompt="" v:val="VT5(1)"/>
				</v:userDefs>
				<path d="M53.45 788.91 L58.34 788.91 L58.34 787.01 L53.45 787.01 L53.45 788.91 ZM53.45 792.31 L58.34 792.31 L58.34
							 790.4 L53.45 790.4 L53.45 792.31 ZM41.47 837.46 L38.77 837.46 L40.28 839.14 L43.19 839.14 L41.47 837.46
							 ZM38.42 834.48 L36.1 834.48 L37.72 836.29 L40.27 836.29 L38.42 834.48 ZM37.32 837.46 L34.62 837.46 L35.81
							 839.14 L38.72 839.14 L37.32 837.46 ZM34.84 834.48 L32.52 834.48 L33.79 836.29 L36.35 836.29 L34.84 834.48
							 ZM33.17 837.46 L30.47 837.46 L31.33 839.14 L34.24 839.14 L33.17 837.46 ZM31.27 834.48 L28.95 834.48
							 L29.88 836.32 L32.44 836.32 L31.27 834.48 ZM29.02 837.46 L26.32 837.46 L26.86 839.14 L29.77 839.14 L29.02
							 837.46 ZM27.75 834.61 L25.4 834.61 L25.95 836.32 L28.51 836.32 L27.75 834.61 ZM24.87 837.46 L22.17 837.46
							 L22.38 839.14 L25.29 839.14 L24.87 837.46 ZM24.18 834.75 L21.82 834.75 L22.04 836.43 L24.61 836.43 L24.18
							 834.75 ZM20.55 834.75 L18.19 834.75 L18.08 836.43 L20.65 836.43 L20.55 834.75 ZM20.71 837.46 L18.01
							 837.46 L17.9 839.14 L20.81 839.14 L20.71 837.46 ZM16.93 834.75 L14.57 834.75 L14.13 836.43 L16.7 836.43
							 L16.93 834.75 ZM16.56 837.46 L13.86 837.46 L13.43 839.14 L16.34 839.14 L16.56 837.46 ZM31.37 840.21
							 L12.32 840.21 L11.83 841.89 L32.19 841.89 L31.37 840.21 ZM13.3 834.75 L10.94 834.75 L10.18 836.43 L12.75
							 836.43 L13.3 834.75 ZM12.41 837.46 L9.71 837.46 L8.95 839.14 L11.86 839.14 L12.41 837.46 ZM9.67 834.75
							 L7.31 834.75 L6.22 836.43 L8.79 836.43 L9.67 834.75 ZM8.26 837.46 L5.56 837.46 L4.48 839.14 L7.39 839.14
							 L8.26 837.46 ZM6.04 834.75 L3.68 834.75 L2.27 836.43 L4.84 836.43 L6.04 834.75 ZM4.11 837.46 L1.41 837.46
							 L0 839.14 L2.91 839.14 L4.11 837.46 Z" class="st2"/>
			</g>
		</g>
		<g id="shape25-41" v:mID="25" v:groupContext="shape" transform="translate(112.301,-695.748)">
			<title>工作表.25</title>
			<desc>外网IPx.x.x.x</desc>
			<v:textBlock v:margins="rect(4,4,4,4)" v:tabSpace="42.5197"/>
			<v:textRect cx="76" cy="831.89" width="152" height="20"/>
			<rect x="0" y="821.89" width="152" height="20" class="st5"/>
			<text x="31" y="835.49" class="st6" v:langID="2052"><v:paragraph v:horizAlign="1"/><v:tabList/>外网IP：x.x.x.x</text>		</g>
		<g id="shape26-44" v:mID="26" v:groupContext="shape" transform="translate(271.244,-694.488)">
			<title>工作表.26</title>
			<desc>内网IP192.168.0.24</desc>
			<v:textBlock v:margins="rect(4,4,4,4)" v:tabSpace="42.5197"/>
			<v:textRect cx="76" cy="831.89" width="152" height="20"/>
			<rect x="0" y="821.89" width="152" height="20" class="st5"/>
			<text x="16" y="835.49" class="st6" v:langID="2052"><v:paragraph v:horizAlign="1"/><v:tabList/>内网IP：192.168.0.24</text>		</g>
		<g id="shape29-47" v:mID="29" v:groupContext="shape" transform="translate(46.5692,-552.756)">
			<title>工作表.29</title>
			<desc>在B中输入命令 ssh -fCNL *:2250:localhost:7280 localhost</desc>
			<v:textBlock v:margins="rect(4,4,4,4)" v:tabSpace="42.5197"/>
			<v:textRect cx="130.495" cy="817.699" width="260.99" height="48.3812"/>
			<rect x="0" y="793.509" width="260.99" height="48.3812" class="st8"/>
			<text x="4" y="813.91" class="st6" v:langID="2052"><v:paragraph/><v:tabList/>在B中输入命令：<v:newlineChar/><tspan x="4"
						dy="1.223em" class="st9" v:langID="1033">ssh </tspan><tspan class="st9" v:langID="1033">-</tspan><tspan
						class="st9" v:langID="1033">fCNL </tspan><tspan class="st9" v:langID="1033">*:</tspan><tspan class="st10">2250</tspan><tspan
						class="st9" v:langID="1033">:</tspan><tspan class="st9" v:langID="1033">localhost</tspan><tspan class="st9"
						v:langID="1033">:</tspan><tspan class="st9" v:langID="1033">7280 </tspan><tspan class="st9" v:langID="1033">localhost</tspan></text>		</g>
		<g id="shape30-60" v:mID="30" v:groupContext="shape" transform="translate(324,-552.756)">
			<title>工作表.30</title>
			<desc>在A中输入命令 ssh -fCNR 7280:localhost:22 root@x.x.x.x</desc>
			<v:textBlock v:margins="rect(4,4,4,4)" v:tabSpace="42.5197"/>
			<v:textRect cx="126.638" cy="817.699" width="253.28" height="48.3812"/>
			<rect x="0" y="793.509" width="253.276" height="48.3812" class="st11"/>
			<text x="4" y="813.91" class="st6" v:langID="2052"><v:paragraph/><v:tabList/>在A中输入命令：<v:newlineChar/><tspan x="4"
						dy="1.223em" class="st9" v:langID="1033">ssh </tspan><tspan class="st9" v:langID="1033">-</tspan><tspan
						class="st9" v:langID="1033">fCNR </tspan><tspan class="st9" v:langID="1033">7280</tspan><tspan class="st9"
						v:langID="1033">:</tspan><tspan class="st9" v:langID="1033">localhost</tspan><tspan class="st9"
						v:langID="1033">:</tspan><tspan class="st9" v:langID="1033">22 </tspan><tspan class="st9" v:langID="1033">root</tspan><tspan
						class="st9" v:langID="1033">@</tspan><tspan class="st10">x</tspan><tspan class="st10">.</tspan><tspan
						class="st10">x</tspan><tspan class="st10">.</tspan><tspan class="st10">x</tspan><tspan class="st10">.</tspan><tspan
						class="st10">x</tspan></text>		</g>
		<g id="shape31-80" v:mID="31" v:groupContext="shape" transform="translate(46.5692,-498.407)">
			<title>工作表.31</title>
			<desc>外网登陆内网服务器A ssh -p2250 username@x.x.x.x</desc>
			<v:textBlock v:margins="rect(4,4,4,4)" v:tabSpace="42.5197"/>
			<v:textRect cx="92.9359" cy="824.391" width="185.88" height="34.9968"/>
			<rect x="0" y="806.893" width="185.872" height="34.9968" class="st12"/>
			<text x="4" y="820.61" class="st6" v:langID="2052"><v:paragraph/><v:tabList/>外网登陆内网服务器A：<v:newlineChar/><tspan x="4"
						dy="1.223em" class="st9" v:langID="1033">ssh </tspan><tspan class="st9" v:langID="1033">-</tspan><tspan
						class="st9" v:langID="1033">p</tspan><tspan class="st10">2250</tspan><tspan class="st9" v:langID="1033"> </tspan><tspan
						class="st10">username</tspan><tspan class="st9" v:langID="1033">@</tspan><tspan class="st10">x</tspan><tspan
						class="st10">.</tspan><tspan class="st10">x</tspan><tspan class="st10">.</tspan><tspan class="st10">x</tspan><tspan
						class="st10">.</tspan><tspan class="st10">x</tspan></text>		</g>
		<g id="shape32-97" v:mID="32" v:groupContext="shape" transform="translate(212.598,-645.047)">
			<title>工作表.32</title>
			<desc>7280</desc>
			<v:textBlock v:margins="rect(4,4,4,4)" v:tabSpace="42.5197"/>
			<v:textRect cx="12.7559" cy="834.968" width="25.52" height="13.844"/>
			<rect x="0" y="828.046" width="25.5118" height="13.844" class="st13"/>
			<text x="4.76" y="837.37" class="st14" v:langID="2052"><v:paragraph v:horizAlign="1"/><v:tabList/>7280</text>		</g>
		<g id="shape33-100" v:mID="33" v:groupContext="shape" transform="translate(297.638,-645.047)">
			<title>工作表.33</title>
			<desc>22</desc>
			<v:textBlock v:margins="rect(4,4,4,4)" v:tabSpace="42.5197"/>
			<v:textRect cx="12.7559" cy="834.968" width="25.52" height="13.844"/>
			<rect x="0" y="828.046" width="25.5118" height="13.844" class="st13"/>
			<text x="8.76" y="837.37" class="st14" v:langID="2052"><v:paragraph v:horizAlign="1"/><v:tabList/>22</text>		</g>
		<g id="shape34-103" v:mID="34" v:groupContext="shape" v:layerMember="0" transform="translate(238.11,-647.498)">
			<title>动态连接线.34</title>
			<path d="M0 834.8 L53.81 834.8" class="st15"/>
		</g>
		<g id="shape35-109" v:mID="35" v:groupContext="shape" transform="translate(144.567,-645.047)">
			<title>工作表.35</title>
			<desc>2250</desc>
			<v:textBlock v:margins="rect(4,4,4,4)" v:tabSpace="42.5197"/>
			<v:textRect cx="12.7559" cy="834.968" width="25.52" height="13.844"/>
			<rect x="0" y="828.046" width="25.5118" height="13.844" class="st13"/>
			<text x="4.76" y="837.37" class="st14" v:langID="2052"><v:paragraph v:horizAlign="1"/><v:tabList/>2250</text>		</g>
		<g id="shape36-112" v:mID="36" v:groupContext="shape" v:layerMember="0" transform="translate(77.9528,-644.882)">
			<title>动态连接线.36</title>
			<path d="M0 834.8 L60.89 834.8" class="st15"/>
		</g>
		<g id="shape37-117" v:mID="37" v:groupContext="shape" v:layerMember="0" transform="translate(151.646,-641.666)">
			<title>动态连接线.37</title>
			<path d="M7.09 841.89 L-5.86 841.89 L-5.86 820.79 L7.09 820.79" class="st17"/>
		</g>
		<g id="shape38-120" v:mID="38" v:groupContext="shape" v:layerMember="0" transform="translate(170.079,-644.882)">
			<title>动态连接线.38</title>
			<path d="M0 834.8 L36.8 834.8" class="st18"/>
		</g>
		<g id="shape39-126" v:mID="39" v:groupContext="shape" v:layerMember="0" transform="translate(238.11,-642.266)">
			<title>动态连接线.39</title>
			<path d="M5.36 834.8 L5.72 834.8 L59.53 834.8" class="st20"/>
		</g>
	</g>
</svg>
